<?xml version="1.0" encoding="UTF-8"?>
<svg xmlns="http://www.w3.org/2000/svg" xmlns:xlink="http://www.w3.org/1999/xlink"
     width="270" height="220" viewBox="0 -220 270 220">
<defs>
</defs>
<path d="M100.0,-10 L100.0,-110" stroke="black" stroke-width="2" />
<path d="M66.66666666666666,-10 L66.66666666666666,-110" stroke="black" stroke-width="2" />
<path d="M33.33333333333333,-10 L33.33333333333333,-110" stroke="black" stroke-width="2" />
<circle cx="100.0" cy="-10.0" r="5" fill="blue" stroke-width="2" stroke="black" />
<circle cx="100.0" cy="-60.0" r="5" fill="blue" stroke-width="2" stroke="black" />
<circle cx="66.66666666666666" cy="-10.0" r="5" fill="blue" stroke-width="2" stroke="black" />
<circle cx="66.66666666666666" cy="-60.0" r="5" fill="blue" stroke-width="2" stroke="black" />
<circle cx="33.33333333333333" cy="-10.0" r="5" fill="blue" stroke-width="2" stroke="black" />
<circle cx="33.33333333333333" cy="-43.333333333333336" r="5" fill="blue" stroke-width="2" stroke="black" />
<circle cx="33.33333333333333" cy="-76.66666666666667" r="5" fill="blue" stroke-width="2" stroke="black" />
<path d="M66.66666666666666,-10.0 L100.0,-10.0" stroke="grey" stroke-width="1" />
<path d="M66.66666666666666,-10.0 L100.0,-60.0" stroke="grey" stroke-width="1" />
<text x="83.33333333333333" y="-45.0" font-size="12" text-anchor="start" dy="0.4em">-1</text>
<path d="M33.33333333333333,-43.333333333333336 L66.66666666666666,-60.0" stroke="grey" stroke-width="1" />
<path d="M0,0 L150,0" stroke="black" stroke-width="0.5" />
<path d="M100.0,-110 L100.0,-210" stroke="black" stroke-width="2" />
<path d="M50.0,-110 L50.0,-210" stroke="black" stroke-width="2" />
<circle cx="100.0" cy="-110.0" r="5" fill="blue" stroke-width="2" stroke="black" />
<circle cx="50.0" cy="-110.0" r="5" fill="blue" stroke-width="2" stroke="black" />
<circle cx="50.0" cy="-160.0" r="5" fill="blue" stroke-width="2" stroke="black" />
<path d="M50.0,-160.0 L100.0,-110.0" stroke="grey" stroke-width="1" />
<text x="75.0" y="-145.0" font-size="12" text-anchor="start" dy="0.4em">3</text>
<path d="M0,-100 L150,-100" stroke="black" stroke-width="0.5" />
</svg>